<?xml version="1.0" standalone="no"?>
<!DOCTYPE svg PUBLIC "-//W3C//DTD SVG 20010904//EN"
 "http://www.w3.org/TR/2001/REC-SVG-20010904/DTD/svg10.dtd">
<svg version="1.0" xmlns="http://www.w3.org/2000/svg"
 width="653.000000pt" height="653.000000pt" viewBox="0 0 653.000000 653.000000"
 preserveAspectRatio="xMidYMid meet">

<g transform="translate(0.000000,653.000000) scale(0.100000,-0.100000)"
fill="#000000" stroke="none">
<path d="M3915 5790 c-159 -16 -276 -54 -447 -143 -103 -54 -177 -102 -244
-157 -17 -14 -49 -38 -70 -55 -21 -16 -83 -75 -138 -130 -196 -195 -250 -277
-226 -349 17 -54 56 -70 146 -63 90 8 101 12 107 45 7 36 -7 44 -75 39 -40 -2
-58 0 -58 8 0 42 217 272 375 399 308 245 596 339 910 295 141 -19 212 -65
241 -153 29 -89 73 -166 95 -166 15 0 41 110 42 178 1 58 -3 73 -27 109 -34
51 -133 104 -241 129 -82 19 -275 26 -390 14z"/>
<path d="M3835 5089 c-22 -4 -85 -10 -139 -14 -112 -7 -223 -38 -327 -90 -60
-31 -96 -59 -93 -74 1 -3 -10 -13 -25 -22 -22 -13 -29 -13 -53 -2 -24 13 -33
12 -74 -6 -41 -19 -45 -24 -40 -46 7 -28 -15 -44 -71 -51 -19 -3 -43 -9 -53
-14 -21 -11 -24 -8 -34 33 -8 33 -41 36 -103 8 -35 -16 -42 -17 -47 -5 -8 22
-41 17 -106 -16 -33 -16 -62 -30 -65 -30 -2 0 3 15 11 34 11 22 14 45 10 68
l-6 35 -55 -2 c-31 -1 -59 -5 -63 -9 -4 -4 -12 12 -18 36 -10 40 -12 43 -45
42 -19 0 -38 6 -42 13 -12 20 -64 16 -153 -11 -155 -47 -316 -116 -369 -158
-5 -5 -35 -27 -65 -51 -106 -82 -277 -251 -372 -369 -48 -58 -228 -314 -228
-322 0 -2 -16 -30 -35 -62 -103 -171 -169 -353 -210 -579 -78 -441 -88 -529
-89 -835 -1 -244 25 -376 137 -685 52 -144 98 -221 193 -325 102 -112 124
-130 155 -130 21 0 31 -11 60 -67 56 -111 135 -228 175 -262 41 -33 91 -41
137 -20 32 15 57 69 57 124 0 25 3 45 6 45 6 0 58 -32 177 -109 75 -49 191
-105 272 -131 39 -12 79 -26 90 -30 77 -30 351 -104 425 -114 183 -25 294 -33
430 -30 270 6 486 60 745 189 252 125 323 174 675 474 58 49 106 88 108 87 1
-2 -4 -18 -12 -36 -12 -29 -12 -36 0 -47 7 -8 18 -22 23 -31 12 -21 68 -18 94
5 10 10 34 47 53 84 35 66 112 166 142 183 12 7 14 4 9 -14 -7 -26 5 -53 36
-87 39 -43 93 -26 147 45 146 192 186 249 235 337 30 55 57 105 58 110 2 6 14
2 25 -9 29 -25 89 -16 118 18 30 34 69 145 87 246 38 210 40 233 34 462 -12
434 -76 798 -178 1012 -11 22 -19 48 -19 57 0 10 -4 20 -9 23 -4 3 -14 26 -21
51 -7 25 -17 48 -21 51 -5 3 -9 12 -9 20 0 16 -17 57 -77 184 -97 205 -260
374 -536 554 -97 63 -216 110 -375 147 -48 11 -127 33 -177 49 -64 20 -121 30
-195 34 -58 4 -136 15 -175 25 -75 20 -79 21 -140 10z m-1523 -840 c-2 -22
-25 -70 -108 -229 -21 -41 -48 -110 -58 -153 -21 -85 -40 -107 -82 -99 -39 7
-51 45 -53 172 -2 63 -4 116 -6 118 -6 6 -175 -268 -175 -284 0 -22 -36 -44
-72 -44 -51 0 -63 28 -47 110 6 31 9 65 8 75 -2 10 -51 -79 -113 -206 -59
-123 -122 -253 -139 -288 -37 -75 -68 -103 -106 -95 -32 8 -54 33 -45 54 21
56 155 602 176 722 6 37 14 72 18 77 3 6 31 13 61 17 53 6 56 5 54 -16 -1 -12
-7 -25 -14 -30 -10 -5 -71 -275 -71 -310 0 -3 21 35 46 85 83 162 145 237 210
255 59 17 68 7 67 -72 0 -35 2 -56 6 -48 7 19 46 65 87 105 29 28 90 55 126
55 18 0 38 -41 38 -76 0 -23 5 -20 58 33 102 103 140 124 134 72z m-191 -822
c93 -90 160 -141 304 -233 160 -103 309 -178 337 -170 66 18 81 70 66 219 -6
54 -8 101 -4 104 3 4 30 -10 58 -30 127 -87 276 -147 577 -234 123 -35 131
-38 95 -44 -45 -6 -84 -28 -84 -46 0 -7 -4 -13 -9 -13 -19 0 -71 -65 -71 -89
0 -32 8 -45 37 -60 37 -19 60 -13 102 28 22 21 51 40 63 43 27 5 135 -6 190
-20 32 -8 42 -6 72 14 23 16 36 33 38 51 2 19 10 29 23 31 11 2 31 11 45 22
25 19 25 20 22 152 -2 73 0 157 3 187 l7 54 21 -24 c12 -13 61 -70 110 -126
115 -133 193 -205 302 -279 250 -168 388 -191 408 -67 8 47 49 184 54 179 2
-2 11 -61 19 -132 19 -156 35 -196 84 -206 21 -4 45 -2 59 5 32 15 103 105
141 179 16 31 39 59 50 63 11 3 20 12 20 20 0 13 29 25 62 25 45 0 71 -141 43
-237 -46 -158 -121 -302 -208 -399 -50 -55 -85 -73 -197 -99 -41 -10 -77 -20
-79 -22 -3 -2 7 -16 22 -31 l26 -27 -34 -54 c-19 -30 -46 -85 -60 -122 -49
-128 -157 -244 -508 -544 -187 -160 -504 -339 -687 -387 -61 -16 -164 -38
-200 -44 -19 -2 -46 -7 -59 -10 -31 -7 -311 -6 -381 1 -162 17 -517 93 -604
130 -17 7 -51 19 -76 26 -40 11 -130 51 -215 96 -39 20 -204 189 -246 251 -17
26 -67 119 -110 207 -44 88 -88 177 -99 198 -20 36 -20 45 -10 255 10 211 16
302 29 447 l6 70 44 -85 c23 -47 46 -88 50 -92 3 -4 24 -10 47 -14 35 -5 45
-3 66 19 23 23 25 34 31 148 8 163 48 440 91 624 32 143 38 165 39 165 1 0 36
-33 78 -73z m-696 -1187 c4 -6 10 -8 14 -6 4 3 12 1 19 -3 9 -5 9 -28 2 -91
-5 -47 -10 -94 -10 -105 -1 -11 -10 3 -21 30 -23 59 -38 185 -21 185 6 0 14
-5 17 -10z"/>
<path d="M3623 2691 c-52 -9 -117 -58 -121 -92 -4 -39 32 -86 75 -98 81 -23
143 -2 215 71 33 34 39 45 36 76 -2 29 -8 38 -28 43 -32 9 -122 9 -177 0z"/>
<path d="M2414 2650 c-120 -18 -148 -42 -128 -112 13 -44 53 -56 105 -33 33
15 56 17 152 12 135 -8 156 2 164 74 l5 45 -71 12 c-77 13 -147 14 -227 2z"/>
<path d="M2584 2329 c-126 -9 -134 -13 -134 -56 0 -29 8 -44 40 -74 50 -48
112 -60 170 -34 63 28 80 50 80 99 0 67 -18 75 -156 65z"/>
<path d="M4058 2290 c-15 -4 -60 -35 -100 -68 -74 -60 -168 -123 -202 -136
-11 -4 -80 -20 -154 -37 -214 -47 -336 -91 -422 -150 -41 -29 -77 -55 -80 -58
-12 -15 -125 -83 -201 -122 -89 -45 -95 -46 -272 -39 -77 3 -94 -6 -72 -37 34
-48 217 -72 326 -43 87 24 212 93 425 237 48 32 159 67 309 98 250 50 275 61
448 200 86 69 97 84 94 125 -2 32 -5 35 -37 37 -19 1 -47 -2 -62 -7z"/>
</g>
</svg>
